HIERARCHY
ROOT Hips
{
	OFFSET 0.000000 0.000000 0.000000
	CHANNELS 6 Xposition Yposition Zposition Xrotation Yrotation Zrotation
	JOINT LeftUpLeg_virtual
	{
		OFFSET 0.000000 0.000000 0.000000
		CHANNELS 3 Xrotation Yrotation Zrotation
		JOINT LeftUpLeg
		{
			OFFSET 13.026900 -6.336304 -1.092800
			CHANNELS 3 Xrotation Yrotation Zrotation
			JOINT LeftLeg
			{
				OFFSET 0.524474 -46.096886 9.782700
				CHANNELS 3 Xrotation Yrotation Zrotation
				JOINT LeftFoot
				{
					OFFSET -0.524474 -53.427422 -12.948200
					CHANNELS 3 Xrotation Yrotation Zrotation
					JOINT LeftToeBase
					{
						OFFSET 0.192200 -14.009700 16.364100
						CHANNELS 3 Xrotation Yrotation Zrotation
						JOINT LeftToe_End
						{
							OFFSET -1.784700 -0.561700 9.474800
							CHANNELS 3 Xrotation Yrotation Zrotation
							End Site
							{
								OFFSET 0 0 0
							}
						}
					}
				}
			}
		}
	}
	JOINT RightUpLeg_virtual
	{
		OFFSET 0.000000 0.000000 0.000000
		CHANNELS 3 Xrotation Yrotation Zrotation
		JOINT RightUpLeg
		{
			OFFSET -12.883000 -6.336304 -1.092800
			CHANNELS 3 Xrotation Yrotation Zrotation
			JOINT RightLeg
			{
				OFFSET -0.524587 -46.096825 9.782800
				CHANNELS 3 Xrotation Yrotation Zrotation
				JOINT RightFoot
				{
					OFFSET 0.524587 -53.427383 -12.948300
					CHANNELS 3 Xrotation Yrotation Zrotation
					JOINT RightToeBase
					{
						OFFSET -0.192200 -14.009700 16.364100
						CHANNELS 3 Xrotation Yrotation Zrotation
						JOINT RightToe_End
						{
							OFFSET 1.784700 -0.561700 9.474800
							CHANNELS 3 Xrotation Yrotation Zrotation
							End Site
							{
								OFFSET 0 0 0
							}
						}
					}
				}
			}
		}
	}
	JOINT Spine_virtual
	{
		OFFSET 0.000000 0.000000 0.000000
		CHANNELS 3 Xrotation Yrotation Zrotation
		JOINT Spine
		{
			OFFSET 0.072000 7.257294 -0.789700
			CHANNELS 3 Xrotation Yrotation Zrotation
			JOINT Spine1
			{
				OFFSET 0.000000 12.508769 -0.658067
				CHANNELS 3 Xrotation Yrotation Zrotation
				JOINT Spine1_split
				{
					OFFSET 0.000000 12.508769 -0.658067
					CHANNELS 3 Xrotation Yrotation Zrotation
					JOINT Spine2
					{
						OFFSET 0.000000 12.508769 -0.658067
						CHANNELS 3 Xrotation Yrotation Zrotation
						JOINT Neck_virtual
						{
							OFFSET 0.000000 0.000000 0.000000
							CHANNELS 3 Xrotation Yrotation Zrotation
							JOINT Neck
							{
								OFFSET 0.000000 14.033295 7.520400
								CHANNELS 3 Xrotation Yrotation Zrotation
								JOINT Head
								{
									OFFSET 0.000000 8.198502 5.703100
									CHANNELS 3 Xrotation Yrotation Zrotation
									JOINT HeadTop_End
									{
										OFFSET 0.000000 17.760803 13.332701
										CHANNELS 3 Xrotation Yrotation Zrotation
										End Site
										{
											OFFSET 0 0 0
										}
									}
								}
							}
						}
						JOINT LeftShoulder_virtual
						{
							OFFSET 0.000000 0.000000 0.000000
							CHANNELS 3 Xrotation Yrotation Zrotation
							JOINT LeftShoulder
							{
								OFFSET 6.292450 5.785301 -0.669000
								CHANNELS 3 Xrotation Yrotation Zrotation
								JOINT LeftShoulder_split
								{
									OFFSET 6.292450 5.785301 -0.669000
									CHANNELS 3 Xrotation Yrotation Zrotation
									JOINT LeftArm
									{
										OFFSET 13.907140 -6.093903 1.965100
										CHANNELS 3 Xrotation Yrotation Zrotation
										JOINT LeftForeArm
										{
											OFFSET 34.140198 0.000000 0.000000
											CHANNELS 3 Xrotation Yrotation Zrotation
											JOINT LeftHand
											{
												OFFSET 40.960209 0.000000 0.000000
												CHANNELS 3 Xrotation Yrotation Zrotation
												End Site
												{
													OFFSET 0 0 0
												}
											}
										}
									}
								}
							}
						}
						JOINT RightShoulder_virtual
						{
							OFFSET 0.000000 0.000000 0.000000
							CHANNELS 3 Xrotation Yrotation Zrotation
							JOINT RightShoulder
							{
								OFFSET -6.292450 5.785301 -0.669000
								CHANNELS 3 Xrotation Yrotation Zrotation
								JOINT RightShoulder_split
								{
									OFFSET -6.292450 5.785301 -0.669000
									CHANNELS 3 Xrotation Yrotation Zrotation
									JOINT RightArm
									{
										OFFSET -13.907140 -6.093903 1.965100
										CHANNELS 3 Xrotation Yrotation Zrotation
										JOINT RightForeArm
										{
											OFFSET -34.140198 0.000000 0.000000
											CHANNELS 3 Xrotation Yrotation Zrotation
											JOINT RightHand
											{
												OFFSET -40.960209 0.000000 0.000000
												CHANNELS 3 Xrotation Yrotation Zrotation
												End Site
												{
													OFFSET 0 0 0
												}
											}
										}
									}
								}
							}
						}
					}
				}
			}
		}
	}
}
MOTION
Frames: 4
Frame Time: 0.03333333
-3.654407 110.479294 17.298645 0.000000 0.000000 0.000000 175.405487 -62.117114 176.862708 -7.312587 14.454863 15.103973 21.408173 17.128352 1.279074 -8.458156 3.223255 -23.599378 -4.904911 1.091800 -0.303432 0.000000 0.000000 0.000000 175.067516 -60.945614 176.203936 -19.364408 -18.347491 -16.248834 18.497363 -12.469020 0.757823 2.799422 -0.102954 9.318496 -1.907319 -4.313799 3.399202 0.000000 0.000000 0.000000 174.461282 -64.705879 174.527876 9.857488 -0.420585 -0.016063 -0.123820 -1.194407 2.059212 0.874857 -0.950276 0.051144 0.000000 0.000000 0.000000 -2.210505 -1.158905 2.496857 -4.291896 21.951434 4.386323 2.269986 23.637053 -7.956790 0.000000 0.000000 0.000000 -2.166650 -0.685809 2.120506 0.912278 1.900870 -8.062979 1.879878 -3.549892 -1.674232 -1.030980 -7.322910 -58.937675 4.891353 -16.248486 -6.100900 0.000000 0.000000 0.000000 -1.772563 -1.101897 1.732083 1.823155 -2.180931 18.933346 -2.961563 -1.634773 -0.516580 16.418325 27.999444 45.304607 16.305200 26.288304 -6.129596 0.000000 0.000000 0.000000 
-3.455173 109.982712 14.091938 0.000000 0.000000 0.000000 176.072209 -58.640596 177.598128 -6.054540 15.382713 16.667632 22.681834 19.239168 1.209483 -6.660529 3.786721 -25.208650 -5.301128 1.278975 -0.280517 0.000000 0.000000 0.000000 175.764495 -57.447731 176.940873 -20.496766 -18.818450 -14.718004 19.515683 -11.715518 0.889699 3.290003 0.940553 8.381346 -2.596683 -4.364979 3.359829 0.000000 0.000000 0.000000 175.670007 -60.855660 175.840884 9.994105 -0.951778 -0.158921 -0.032792 -1.555780 2.606082 0.957372 -0.607754 -0.050740 0.000000 0.000000 0.000000 -2.233812 -1.516433 2.993995 -4.405987 19.359316 3.179849 1.622243 19.761033 -6.175163 0.000000 0.000000 0.000000 -2.036873 -1.030364 2.659560 0.971241 2.425793 -8.965270 1.589283 -3.629844 -1.482900 0.243853 -7.986819 -59.236209 4.199240 -16.260387 -6.029102 0.000000 0.000000 0.000000 -1.616447 -1.418182 2.243476 1.832819 -2.461012 18.320357 -2.799546 -1.475456 -0.453337 15.589702 28.993784 45.551525 16.006915 26.111697 -6.365405 0.000000 0.000000 0.000000 
-3.159261 109.343018 10.609581 0.000000 0.000000 0.000000 176.762577 -55.129944 178.211165 -5.685440 15.764553 18.747519 25.836809 20.983123 0.968293 -4.356182 3.929284 -25.862786 -5.063292 1.603703 -0.834817 0.000000 0.000000 0.000000 176.525037 -54.054021 177.551109 -21.051686 -19.206086 -12.585689 20.598510 -10.478483 0.880652 2.814256 1.858207 7.208770 -3.088413 -4.384705 3.128197 0.000000 0.000000 0.000000 176.843433 -56.994595 176.930668 10.287964 -1.541050 -0.263177 0.001715 -1.909805 3.043832 0.955251 -0.186903 -0.240113 0.000000 0.000000 0.000000 -2.286923 -1.884030 3.372331 -4.391378 16.413464 2.272775 1.112894 15.687341 -4.579203 0.000000 0.000000 0.000000 -1.947303 -1.384298 3.089114 1.041787 2.849055 -9.609371 1.419468 -3.723791 -1.184900 1.824735 -8.620394 -59.633521 3.607062 -16.632651 -6.048607 0.000000 0.000000 0.000000 -1.531859 -1.738577 2.665440 1.862545 -2.624761 17.908162 -2.805712 -1.243752 -0.390103 14.859690 29.922868 45.746814 15.589002 26.006994 -6.325168 0.000000 0.000000 0.000000 
-2.811559 108.643990 6.899120 0.000000 0.000000 0.000000 177.449203 -51.667734 178.723839 -6.608144 15.178668 21.215782 30.824681 21.859865 0.656964 -1.512243 3.396902 -25.858903 -3.978112 2.034714 -2.055731 0.000000 0.000000 0.000000 177.373251 -50.789225 178.124572 -20.933271 -19.460442 -10.015159 21.694243 -8.995791 0.714707 1.205839 2.440166 5.663829 -3.011079 -4.364788 2.710087 0.000000 0.000000 0.000000 177.912453 -53.201846 177.778705 10.699750 -2.073352 -0.311076 -0.079253 -2.186375 3.243197 0.889053 0.346425 -0.289597 0.000000 0.000000 0.000000 -2.357050 -2.175993 3.499646 -4.200568 13.237603 1.783819 0.742055 11.604557 -3.268032 0.000000 0.000000 0.000000 -1.937642 -1.668357 3.286556 1.097674 3.155827 -9.879267 1.279768 -3.688426 -0.890902 3.459291 -8.940059 -60.083767 3.111477 -17.309491 -6.194496 0.000000 0.000000 0.000000 -1.537305 -1.999717 2.866147 1.880612 -2.672205 17.733432 -2.815652 -1.026197 -0.328012 14.235051 30.635085 45.866578 15.155230 26.019624 -6.100982 0.000000 0.000000 0.000000 
